REM DIRINDEX 1\2,1\3,1\4,1\5
REM DIRNAME cjc093,folder01,folder02,folder03,folder04
TITLE ""
FILE "Round-09-208-209.mp3" MP3
  TRACK 01 AUDIO
    TITLE "0:"
    INDEX 01 00:00:00
  TRACK 02 AUDIO
    TITLE "2:cjc093_2322"
    INDEX 01 00:00:01
  TRACK 03 AUDIO
    TITLE "0:"
    INDEX 01 00:01:09
  TRACK 04 AUDIO
    TITLE "3:cjc093_2323"
    INDEX 01 00:01:36
  TRACK 05 AUDIO
    TITLE "0:"
    INDEX 01 00:02:40
  TRACK 06 AUDIO
    TITLE "4:cjc093_2324"
    INDEX 01 00:03:02
  TRACK 07 AUDIO
    TITLE "0:"
    INDEX 01 00:06:12
  TRACK 08 AUDIO
    TITLE "2:cjc093_2325"
    INDEX 01 00:07:19
  TRACK 09 AUDIO
    TITLE "0:"
    INDEX 01 00:08:30
  TRACK 10 AUDIO
    TITLE "2:cjc093_2326"
    INDEX 01 00:08:64
  TRACK 11 AUDIO
    TITLE "0:"
    INDEX 01 00:11:39
  TRACK 12 AUDIO
    TITLE "3:cjc093_2327"
    INDEX 01 00:12:20
  TRACK 13 AUDIO
    TITLE "0:"
    INDEX 01 00:15:32
  TRACK 14 AUDIO
    TITLE "4:cjc093_2328"
    INDEX 01 00:16:02
  TRACK 15 AUDIO
    TITLE "0:"
    INDEX 01 00:19:18
  TRACK 16 AUDIO
    TITLE "2:cjc093_2329"
    INDEX 01 00:20:32
  TRACK 17 AUDIO
    TITLE "0:"
    INDEX 01 00:21:33
  TRACK 18 AUDIO
    TITLE "3:cjc093_2330"
    INDEX 01 00:21:64
  TRACK 19 AUDIO
    TITLE "0:"
    INDEX 01 00:23:12
  TRACK 20 AUDIO
    TITLE "4:cjc093_2331"
    INDEX 01 00:23:51
  TRACK 21 AUDIO
    TITLE "0:"
    INDEX 01 00:25:64
  TRACK 22 AUDIO
    TITLE "2:cjc093_2332"
    INDEX 01 00:27:04
  TRACK 23 AUDIO
    TITLE "0:"
    INDEX 01 00:28:00
  TRACK 24 AUDIO
    TITLE "3:cjc093_2333"
    INDEX 01 00:28:35
  TRACK 25 AUDIO
    TITLE "0:"
    INDEX 01 00:29:60
  TRACK 26 AUDIO
    TITLE "4:cjc093_2334"
    INDEX 01 00:30:20
  TRACK 27 AUDIO
    TITLE "0:"
    INDEX 01 00:33:24
  TRACK 28 AUDIO
    TITLE "2:cjc093_2335"
    INDEX 01 00:34:36
  TRACK 29 AUDIO
    TITLE "0:"
    INDEX 01 00:35:49
  TRACK 30 AUDIO
    TITLE "3:cjc093_2336"
    INDEX 01 00:36:01
  TRACK 31 AUDIO
    TITLE "0:"
    INDEX 01 00:37:36
  TRACK 32 AUDIO
    TITLE "4:cjc093_2337"
    INDEX 01 00:37:57
  TRACK 33 AUDIO
    TITLE "0:"
    INDEX 01 00:40:15
  TRACK 34 AUDIO
    TITLE "2:cjc093_2338"
    INDEX 01 00:41:28
  TRACK 35 AUDIO
    TITLE "0:"
    INDEX 01 00:42:31
  TRACK 36 AUDIO
    TITLE "3:cjc093_2339"
    INDEX 01 00:42:66
  TRACK 37 AUDIO
    TITLE "0:"
    INDEX 01 00:44:20
  TRACK 38 AUDIO
    TITLE "4:cjc093_2340"
    INDEX 01 00:44:34
  TRACK 39 AUDIO
    TITLE "0:"
    INDEX 01 00:46:51
  TRACK 40 AUDIO
    TITLE "3:cjc093_2341"
    INDEX 01 00:47:58
  TRACK 41 AUDIO
    TITLE "0:"
    INDEX 01 00:49:33
  TRACK 42 AUDIO
    TITLE "4:cjc093_2342"
    INDEX 01 00:50:07
  TRACK 43 AUDIO
    TITLE "0:"
    INDEX 01 00:53:31
  TRACK 44 AUDIO
    TITLE "2:cjc093_2343"
    INDEX 01 00:54:40
  TRACK 45 AUDIO
    TITLE "0:"
    INDEX 01 00:55:42
  TRACK 46 AUDIO
    TITLE "3:cjc093_2344"
    INDEX 01 00:56:14
  TRACK 47 AUDIO
    TITLE "0:"
    INDEX 01 00:57:39
  TRACK 48 AUDIO
    TITLE "4:cjc093_2345"
    INDEX 01 00:58:01
  TRACK 49 AUDIO
    TITLE "0:"
    INDEX 01 01:00:51
  TRACK 50 AUDIO
    TITLE "3:cjc093_2346"
    INDEX 01 01:01:64
  TRACK 51 AUDIO
    TITLE "0:"
    INDEX 01 01:03:06
  TRACK 52 AUDIO
    TITLE "4:cjc093_2347"
    INDEX 01 01:03:67
  TRACK 53 AUDIO
    TITLE "0:"
    INDEX 01 01:06:63
  TRACK 54 AUDIO
    TITLE "2:cjc093_2348"
    INDEX 01 01:07:64
  TRACK 55 AUDIO
    TITLE "0:"
    INDEX 01 01:09:48
  TRACK 56 AUDIO
    TITLE "3:cjc093_2349"
    INDEX 01 01:10:00
  TRACK 57 AUDIO
    TITLE "0:"
    INDEX 01 01:11:39
  TRACK 58 AUDIO
    TITLE "4:cjc093_2350"
    INDEX 01 01:11:56
  TRACK 59 AUDIO
    TITLE "0:"
    INDEX 01 01:14:31
